<?xml version="1.0" encoding="UTF-8" standalone="no"?>
<!-- Created with Inkscape (http://www.inkscape.org/) -->

<svg
   width="30"
   height="30"
   viewBox="0 0 26.458333 26.458333"
   version="1.1"
   id="svg5"
   inkscape:version="1.3.2 (091e20e, 2023-11-25)"
   sodipodi:docname="EditList.svg"
   xmlns:inkscape="http://www.inkscape.org/namespaces/inkscape"
   xmlns:sodipodi="http://sodipodi.sourceforge.net/DTD/sodipodi-0.dtd"
   xmlns="http://www.w3.org/2000/svg"
   xmlns:svg="http://www.w3.org/2000/svg">
  <sodipodi:namedview
     id="namedview7"
     pagecolor="#686868"
     bordercolor="#666666"
     borderopacity="1.0"
     inkscape:showpageshadow="2"
     inkscape:pageopacity="0"
     inkscape:pagecheckerboard="true"
     inkscape:deskcolor="#d1d1d1"
     inkscape:document-units="mm"
     showgrid="false"
     showguides="true"
     inkscape:zoom="6.9904296"
     inkscape:cx="50.426085"
     inkscape:cy="53.072561"
     inkscape:window-width="1512"
     inkscape:window-height="945"
     inkscape:window-x="0"
     inkscape:window-y="37"
     inkscape:window-maximized="0"
     inkscape:current-layer="g1224" />
  <defs
     id="defs2" />
  <g
     inkscape:label="Lager 1"
     inkscape:groupmode="layer"
     id="layer1">
    <g
       id="g1224"
       transform="matrix(0.26180288,0,0,0.26180288,-6.2648723,-14.247739)"
       style="display:inline">
      <g
         id="g4"
         inkscape:label="Rows"
         style="fill:#000000">
        <path
           style="color:#000000;fill:#000000;stroke-linejoin:round;-inkscape-stroke:none"
           d="m 35.138672,140.10156 c -1.93035,0 -3.5,1.56965 -3.5,3.5 v 4.16016 c 0,1.93035 1.56965,3.5 3.5,3.5 H 113.7832 c 1.93035,0 3.5,-1.56965 3.5,-3.5 v -4.16016 c 0,-1.93035 -1.56965,-3.5 -3.5,-3.5 z m 0,1 H 113.7832 c 1.39365,0 2.5,1.10636 2.5,2.5 v 4.16016 c 0,1.39365 -1.10635,2.5 -2.5,2.5 H 35.138672 c -1.393647,0 -2.5,-1.10635 -2.5,-2.5 v -4.16016 c 0,-1.39364 1.106353,-2.5 2.5,-2.5 z"
           id="rect788-3" />
        <g
           id="rect788-69"
           style="fill:#000000">
          <path
             id="path11"
             style="color:#000000;fill:#000000;stroke-linejoin:round;-inkscape-stroke:none"
             d="M 35.137353 127.3146 C 33.206952 127.3146 31.637685 128.88387 31.637685 130.81427 L 31.637685 134.97321 C 31.637685 136.90359 33.206952 138.47287 35.137353 138.47287 L 113.78415 138.47287 C 115.71456 138.47287 117.28579 136.90359 117.28579 134.97321 L 117.28579 130.81427 C 117.28579 128.88387 115.71456 127.3146 113.78415 127.3146 L 75.116075 127.3146 L 63.517627 136.27793 A 0.5730073 0.5730073 0 0 1 62.599778 135.74696 L 63.7387 127.3146 L 35.137353 127.3146 z " />
        </g>
        <path
           id="rect788-6"
           style="color:#000000;fill:#000000;stroke-linejoin:round;-inkscape-stroke:none"
           d="M 35.137353 114.52788 C 33.20695 114.52788 31.637685 116.09715 31.637685 118.02755 L 31.637685 122.18649 C 31.637685 124.11689 33.20695 125.68813 35.137353 125.68813 L 63.959773 125.68813 L 64.093996 124.68738 L 35.137353 124.68738 C 33.743764 124.68738 32.636462 123.58008 32.636462 122.18649 L 32.636462 118.02755 C 32.636462 116.63396 33.743764 115.52666 35.137353 115.52666 L 67.487075 115.52666 L 68.063445 114.52788 L 35.137353 114.52788 z M 82.859559 114.52788 L 82.283189 115.52666 L 113.28279 115.52666 C 114.67636 115.52666 115.78368 116.63396 115.78368 118.02755 L 115.78368 122.18649 C 115.78368 123.58008 114.67636 124.68738 113.28279 124.68738 L 76.995197 124.68738 L 76.416854 125.68813 L 113.28279 125.68813 C 115.21318 125.68813 116.78245 124.11689 116.78245 122.18649 L 116.78245 118.02755 C 116.78245 116.09715 115.21318 114.52788 113.28279 114.52788 L 82.859559 114.52788 z " />
      </g>
      <g
         id="g1164"
         transform="rotate(30,182.12454,37.179604)"
         style="display:inline;fill:#000000;stroke:#f9f9f9"
         inkscape:label="Pen">
        <path
           id="path844"
           style="display:inline;fill:#000000;stroke:none;stroke-width:1.1459;stroke-linecap:butt;stroke-linejoin:round;stroke-dasharray:none;stroke-opacity:1"
           inkscape:label="Body"
           d="m 125.78048,95.716166 c -1.80949,1.164039 -3.18787,3.414912 -3.18787,6.558514 l -2e-5,65.59159 0.002,0.003 -1.2e-4,-0.57657 11.6652,2.1e-4 -1.2e-4,-65.01943 c 0,-7.042875 -5.02455,-8.779992 -8.47904,-6.557734 z m -2.95374,72.721484 5.59909,13.64959 5.59922,-13.64878 z" />
        <g
           id="path944">
          <path
             style="color:#000000;stroke:none;-inkscape-stroke:none"
             d="m 122.59293,167.8655 h 11.66735"
             id="path10" />
        </g>
        <g
           id="path6"
           inkscape:label="Mask"
           style="display:none">
          <path
             id="path7"
             style="color:#000000;display:inline;stroke:none;stroke-linejoin:round;-inkscape-stroke:none"
             d="m 126.02617,94.917903 c -2.24694,1.159336 -4.00671,3.742796 -4.00671,7.354927 l -3e-5,65.59159 a 0.5730073,0.5730073 0 0 0 0.0431,0.21673 l 5.83423,14.22267 a 0.5730073,0.5730073 0 0 0 1.06036,9.1e-4 l 5.83367,-14.22174 a 0.5730073,0.5730073 0 0 0 0.0426,-0.21834 l 2e-5,-65.59159 c 0,-2.786814 -0.76121,-4.849689 -1.96982,-6.19499 -1.20861,-1.345302 -2.85486,-1.93921 -4.47484,-1.829036 -0.80999,0.05509 -1.61359,0.282424 -2.36257,0.668869 z" />
        </g>
      </g>
    </g>
  </g>
</svg>
